<svg width="100" height="100" viewBox="0 0 100 100" fill="none" xmlns="http://www.w3.org/2000/svg">
<g clip-path="url(#clip0_46_2)">
<rect width="100" height="100" fill="white"/>
<path d="M50 0C22.429 0 0 22.431 0 50.002C0 77.572 22.429 100.004 50 100.004C77.57 100.004 100 77.572 100 50.002C100 22.431 77.57 0 50 0ZM50 94.235C25.61 94.235 5.77 74.392 5.77 50.002C5.77 25.611 25.61 5.77 50 5.77C74.39 5.77 94.23 25.612 94.23 50.002C94.23 74.392 74.39 94.235 50 94.235Z" fill="#666666"/>
<path d="M39.9243 24.8453C38.7973 23.7183 36.9722 23.7183 35.8453 24.8453C34.7183 25.9713 34.7183 27.7972 35.8453 28.9242L57.2633 50.3432L35.8453 71.7612C34.7183 72.8882 34.7183 74.7133 35.8453 75.8403C36.4083 76.4033 37.1473 76.6853 37.8853 76.6853C38.6233 76.6853 39.3613 76.4043 39.9253 75.8403L63.3812 52.3822C64.5082 51.2552 64.5082 49.4302 63.3812 48.3032L39.9243 24.8453Z" fill="#222222"/>
</g>
<defs>
<clipPath id="clip0_46_2">
<rect width="100" height="100" fill="white"/>
</clipPath>
</defs>
</svg>
