<svg width="61" height="90" viewBox="0 0 61 90" fill="none" xmlns="http://www.w3.org/2000/svg">
<g clip-path="url(#clip0_54_2)">
<path d="M60.309 21.2149L52 14.6369V9.13891H51.221L51.852 8.59691L44.758 0.347911C44.486 0.0299107 44.043 -0.0820891 43.652 0.0619109C43.26 0.206911 43 0.580911 43 0.998911V13.9989H7.684L0.298 21.2869L0.296 21.2899C0.203 21.3819 0.128999 21.4909 0.0779991 21.6139C0.0269991 21.7359 0.000999451 21.8659 0.000999451 21.9959L0 21.9989C0 22.0309 0.0149996 22.0569 0.0179996 22.0879C0.0269996 22.1859 0.0380002 22.2849 0.0760002 22.3779C0.114 22.4709 0.175 22.5499 0.239 22.6269C0.258 22.6509 0.266 22.6799 0.288 22.7019L0.291 22.7039C0.383 22.7969 0.492999 22.8709 0.615999 22.9219C0.738999 22.9719 0.869 22.9989 1 22.9989H7H9H10V36.9989H3V57.9989H16H18H20V68.9989H3V89.9989H36H55V68.9989V49.9989H52V22.9989H59.688C60.114 22.9989 60.493 22.7289 60.632 22.3279C60.773 21.9259 60.643 21.4789 60.309 21.2149ZM45.414 49.9989L50 45.4129V49.9989H45.414ZM50 40.5849L46.414 36.9989H50V40.5849ZM49.586 42.9989H45V38.4129L49.586 42.9989ZM47.586 44.9989L45 47.5849V44.9989H47.586ZM50 34.9989H46.414L50 31.4129V34.9989ZM45 33.5849V29.9989H48.586L45 33.5849ZM45 27.9989V24.4129L48.586 27.9989H45ZM28 19.5849L24.414 15.9989H28V19.5849ZM30 15.9989H33.586L30 19.5849V15.9989ZM14 19.5849L10.414 15.9989H14V19.5849ZM16 15.9989H19.586L16 19.5849V15.9989ZM21 17.4129V20.9989H17.414L21 17.4129ZM23 17.4129L26.586 20.9989H23V17.4129ZM35 17.4129V20.9989H31.414L35 17.4129ZM37 17.4129L40.586 20.9989H37V17.4129ZM50 17.4129V20.9989H46.414L50 17.4129ZM45 19.5849V15.9989H48.586L45 19.5849ZM45 3.69491L50 9.50891V13.9989H45V3.69491ZM43 20.5849L38.414 15.9989H43V20.5849ZM3.437 20.9989L7 17.4829V20.9989H3.437ZM9 20.9989V17.4129L12.586 20.9989H9ZM16 55.9989H5V38.9989H16V55.9989ZM16 36.9989H12V22.9989H14H16H21H23H28H30H35H37H43V27.9989V29.9989V34.9989V36.9989V42.9989V44.9989V49.9989H38H36H32V36.9989H18H16ZM18 55.9989V38.9989H30V49.9989H22H20V51.9989V55.9989H18ZM22 57.9989V51.9989H32H36V68.9989H22V57.9989ZM5 87.9989V70.9989H20H36V87.9989H5ZM38 87.9989V77.9989H43V75.9989H38V74.9989H47V72.9989H38V71.0059H53V87.9989H38ZM53 68.9989H38V51.9989H43H51H53V68.9989ZM50 26.5849L46.414 22.9989H50V26.5849ZM52 20.9989V17.1879L56.814 20.9989H52Z" fill="black"/>
<path d="M9 85.999H18V73.999H9V85.999ZM11 75.999H16V83.999H11V75.999Z" fill="black"/>
<path d="M23 73.999V85.999H32V73.999H23ZM30 83.999H25V75.999H30V83.999Z" fill="black"/>
<path d="M23 65.999H32V53.999H23V65.999ZM25 55.999H30V63.999H25V55.999Z" fill="black"/>
<path d="M15 40.999H6V52.999H15V40.999ZM13 50.999H8V42.999H13V50.999Z" fill="black"/>
</g>
<defs>
<clipPath id="clip0_54_2">
<rect width="60.69" height="90" fill="white"/>
</clipPath>
</defs>
</svg>
