<svg width="39" height="39" viewBox="0 0 39 39" fill="none" xmlns="http://www.w3.org/2000/svg">
<g clip-path="url(#clip0_58_2)">
<path d="M0.878684 0.878685C2.05022 -0.292845 3.94976 -0.292895 5.12134 0.878685L19.2635 15.0208L33.4056 0.878685C34.5772 -0.292885 36.4766 -0.292905 37.6482 0.878685C38.8198 2.05023 38.8198 3.94972 37.6482 5.1213L23.5061 19.2635L37.6483 33.4055C38.8198 34.5771 38.8198 36.4767 37.6482 37.6483C36.4766 38.8199 34.5772 38.8198 33.4056 37.6483L19.2635 23.5061L5.12134 37.6483C3.94977 38.8198 2.05023 38.8198 0.878694 37.6483C-0.292906 36.4767 -0.292886 34.5771 0.878694 33.4055L15.0208 19.2635L0.878694 5.1213C-0.292876 3.94973 -0.292916 2.05029 0.878684 0.878685Z" fill="black"/>
</g>
<defs>
<clipPath id="clip0_58_2">
<rect width="38.53" height="38.53" fill="white"/>
</clipPath>
</defs>
</svg>
