<svg width="88" height="88" viewBox="0 0 88 88" fill="none" xmlns="http://www.w3.org/2000/svg">
<g clip-path="url(#clip0_30_3)">
<path d="M44 0C68.2769 0 88 19.7231 88 44C88 68.2769 68.2769 88 44 88C19.7231 88 0 68.2769 0 44C0 19.7231 19.7231 0 44 0ZM46 4.25V23H60.1562C59.312 20.1367 58.3024 17.4984 57.1562 15.1875C54.0647 8.95405 50.1382 5.18052 46 4.25ZM42 4.25C37.8618 5.18052 33.9353 8.95405 30.8438 15.1875C29.6976 17.4984 28.688 20.1367 27.8438 23H42V4.25ZM55.5625 5.71875C57.5146 7.83627 59.2441 10.433 60.7188 13.4062C62.1371 16.266 63.3449 19.4987 64.3125 23H78.0625C72.987 14.7786 65.0129 8.5616 55.5625 5.71875ZM32.4375 5.71875C22.9871 8.5616 15.013 14.7786 9.9375 23H23.6875C24.6551 19.4987 25.8629 16.266 27.2812 13.4062C28.7559 10.433 30.4854 7.83627 32.4375 5.71875ZM80.2188 27H65.2812C66.2669 31.6495 66.8497 36.7086 66.9688 42H83.9375C83.6751 36.6494 82.3766 31.5928 80.2188 27ZM61.1875 27H46V42H62.9688C62.8418 36.6583 62.2158 31.5848 61.1875 27ZM42 27H26.8125C25.7842 31.5848 25.1582 36.6583 25.0312 42H42V27ZM22.7188 27H7.7812C5.6234 31.5928 4.3249 36.6494 4.0625 42H21.0312C21.1503 36.7086 21.7331 31.6495 22.7188 27ZM83.9375 46H66.9688C66.8512 51.3002 66.2687 56.3493 65.2812 61H80.2188C82.3694 56.4139 83.6756 51.3406 83.9375 46ZM62.9688 46H46V61H61.1875C62.216 56.41 62.8435 51.3477 62.9688 46ZM42 46H25.0312C25.1565 51.3477 25.784 56.41 26.8125 61H42V46ZM21.0312 46H4.0625C4.3244 51.3406 5.6306 56.4139 7.7812 61H22.7188C21.7313 56.3493 21.1488 51.3002 21.0312 46ZM78.0625 65H64.3125C63.3449 68.4961 62.1371 71.7027 60.7188 74.5625C59.244 77.5359 57.5148 80.1894 55.5625 82.3125C65.0129 79.4696 72.987 73.2214 78.0625 65ZM60.1562 65H46V83.7812C50.1382 82.8508 54.0647 79.0459 57.1562 72.8125C58.3062 70.4939 59.3103 67.8744 60.1562 65ZM42 65H27.8438C28.6897 67.8744 29.6938 70.4939 30.8438 72.8125C33.9353 79.0459 37.8618 82.8508 42 83.7812V65ZM23.6875 65H9.9375C15.013 73.2214 22.9871 79.4696 32.4375 82.3125C30.4852 80.1894 28.756 77.5359 27.2812 74.5625C25.8629 71.7027 24.6551 68.4961 23.6875 65Z" fill="black"/>
</g>
<defs>
<clipPath id="clip0_30_3">
<rect width="88" height="88" fill="white"/>
</clipPath>
</defs>
</svg>
