<svg width="70" height="51" viewBox="0 0 70 51" fill="none" xmlns="http://www.w3.org/2000/svg">
<g clip-path="url(#clip0_33_18)">
<mask id="mask0_33_18" style="mask-type:luminance" maskUnits="userSpaceOnUse" x="0" y="0" width="70" height="51">
<path d="M70 0H0V51H70V0Z" fill="white"/>
</mask>
<g mask="url(#mask0_33_18)">
<path d="M65.1772 0H4.82283C3.54374 0 2.31703 0.368748 1.41258 1.02513C0.508117 1.6815 0 2.57174 0 3.5C0 4.42826 0.508117 5.3185 1.41258 5.97487C2.31703 6.63125 3.54374 7 4.82283 7H65.1772C66.4563 7 67.683 6.63125 68.5875 5.97487C69.4918 5.3185 70 4.42826 70 3.5C70 2.57174 69.4918 1.6815 68.5875 1.02513C67.683 0.368748 66.4563 0 65.1772 0Z" fill="black"/>
<path d="M65.1772 22H4.82283C3.54374 22 2.31703 22.3688 1.41258 23.0251C0.508117 23.6815 0 24.5717 0 25.5C0 26.4283 0.508117 27.3185 1.41258 27.9749C2.31703 28.6312 3.54374 29 4.82283 29H65.1772C66.4563 29 67.683 28.6312 68.5875 27.9749C69.4918 27.3185 70 26.4283 70 25.5C70 24.5717 69.4918 23.6815 68.5875 23.0251C67.683 22.3688 66.4563 22 65.1772 22Z" fill="black"/>
<path d="M70 47.5C70 46.5717 69.4918 45.6815 68.5875 45.0251C67.683 44.3687 66.4563 44 65.1772 44H4.82283C3.54374 44 2.31703 44.3687 1.41258 45.0251C0.508117 45.6815 0 46.5717 0 47.5C0 48.4283 0.508117 49.3185 1.41258 49.9749C2.31703 50.6313 3.54374 51 4.82283 51H65.1772C66.4563 51 67.683 50.6313 68.5875 49.9749C69.4918 49.3185 70 48.4283 70 47.5Z" fill="black"/>
</g>
</g>
<defs>
<clipPath id="clip0_33_18">
<rect width="70" height="51" fill="white"/>
</clipPath>
</defs>
</svg>
