<svg width="96" height="96" viewBox="0 0 96 96" fill="none" xmlns="http://www.w3.org/2000/svg">
<g clip-path="url(#clip0_37_2)">
<mask id="mask0_37_2" style="mask-type:luminance" maskUnits="userSpaceOnUse" x="0" y="0" width="96" height="96">
<path d="M95.96 0H0V95.96H95.96V0Z" fill="white"/>
</mask>
<g mask="url(#mask0_37_2)">
<path d="M47.98 0C21.59 0 0 21.59 0 47.98C0 74.37 21.59 95.96 47.98 95.96C74.37 95.96 95.96 74.37 95.96 47.98C95.96 21.59 74.37 0 47.98 0ZM47.98 14.39C56.14 14.39 62.38 20.63 62.38 28.79C62.38 36.95 56.14 43.18 47.98 43.18C39.82 43.18 33.58 36.94 33.58 28.78C33.58 20.62 39.82 14.39 47.98 14.39ZM47.98 82.53C35.98 82.53 25.43 76.29 19.19 67.18C19.19 57.58 38.38 52.31 47.98 52.31C57.58 52.31 76.77 57.59 76.77 67.18C70.53 76.29 59.98 82.53 47.98 82.53Z" fill="#9F9898"/>
</g>
</g>
<defs>
<clipPath id="clip0_37_2">
<rect width="96" height="96" fill="white"/>
</clipPath>
</defs>
</svg>
