<svg width="100" height="100" viewBox="0 0 100 100" fill="none" xmlns="http://www.w3.org/2000/svg">
<g clip-path="url(#clip0_40_2)">
<mask id="mask0_40_2" style="mask-type:luminance" maskUnits="userSpaceOnUse" x="0" y="0" width="100" height="100">
<path d="M100 0H0V100H100V0Z" fill="white"/>
</mask>
<g mask="url(#mask0_40_2)">
<path d="M50 100C77.6142 100 100 77.6142 100 50C100 22.3858 77.6142 0 50 0C22.3858 0 0 22.3858 0 50C0 77.6142 22.3858 100 50 100Z" fill="#FF385C"/>
<g filter="url(#filter0_d_40_2)">
<path d="M67.0922 64.6017L60.6945 58.2042C65.5894 52.1071 65.1171 43.0902 59.5353 37.5514C56.6155 34.6316 52.7082 33 48.5433 33C44.3784 33 40.514 34.6316 37.5514 37.5514C34.6316 40.4711 33 44.3784 33 48.5433C33 52.7082 34.6316 56.5725 37.5514 59.5352C40.4711 62.4549 44.3784 64.0865 48.5433 64.0865C52.0641 64.0865 55.4991 62.8843 58.2472 60.6945L64.6448 67.0922C64.9883 67.4356 65.4176 67.6074 65.8471 67.6074C66.3194 67.6074 66.7487 67.4356 67.0493 67.0922C67.7362 66.3622 67.7362 65.2888 67.0922 64.6017ZM60.6516 48.5003C60.6516 51.7206 59.4064 54.7692 57.1308 57.0448C54.8551 59.3205 51.8065 60.5657 48.5862 60.5657C45.366 60.5657 42.3174 59.3205 40.0417 57.0448C37.7661 54.7692 36.5209 51.7206 36.5209 48.5003C36.5209 45.28 37.7661 42.2315 40.0417 39.9558C42.3174 37.6801 45.366 36.435 48.5862 36.435C51.8065 36.435 54.8551 37.6801 57.1308 39.9558C59.4064 42.2315 60.6516 45.28 60.6516 48.5003Z" fill="white"/>
</g>
</g>
</g>
<defs>
<filter id="filter0_d_40_2" x="29" y="33" width="42.5698" height="42.6074" filterUnits="userSpaceOnUse" color-interpolation-filters="sRGB">
<feFlood flood-opacity="0" result="BackgroundImageFix"/>
<feColorMatrix in="SourceAlpha" type="matrix" values="0 0 0 0 0 0 0 0 0 0 0 0 0 0 0 0 0 0 127 0" result="hardAlpha"/>
<feOffset dy="4"/>
<feGaussianBlur stdDeviation="2"/>
<feComposite in2="hardAlpha" operator="out"/>
<feColorMatrix type="matrix" values="0 0 0 0 0 0 0 0 0 0 0 0 0 0 0 0 0 0 0.25 0"/>
<feBlend mode="normal" in2="BackgroundImageFix" result="effect1_dropShadow_40_2"/>
<feBlend mode="normal" in="SourceGraphic" in2="effect1_dropShadow_40_2" result="shape"/>
</filter>
<clipPath id="clip0_40_2">
<rect width="100" height="100" fill="white"/>
</clipPath>
</defs>
</svg>
