<svg width="100" height="126" viewBox="0 0 100 126" fill="none" xmlns="http://www.w3.org/2000/svg">
<g clip-path="url(#clip0_52_2)">
<path d="M87.3693 25.7109H77.8636C76.1369 25.7109 74.7387 27.1149 74.7387 28.8486C74.7387 30.5824 76.1369 31.9864 77.8636 31.9864H87.3693C90.8282 31.9864 93.7501 36.2968 93.7501 41.3995V110.43C93.7501 115.621 89.5444 119.844 84.3752 119.844H15.6248C10.4556 119.844 6.24992 115.621 6.24992 110.43V41.4008C6.24992 36.3857 9.11048 31.9877 12.3704 31.9877H21.6144C23.3411 31.9877 24.7394 30.5838 24.7394 28.85C24.7394 27.1163 23.3411 25.7123 21.6144 25.7123H12.3704C5.54942 25.7123 0 32.7499 0 41.4008V110.432C0 119.083 7.00901 126.12 15.6248 126.12H84.3752C92.991 126.12 100 119.083 100 110.432V41.4008C100 32.7485 94.3334 25.7109 87.3693 25.7109Z" fill="black"/>
<path d="M38.7999 18.8208L46.8747 10.7131V83.4852C46.8747 85.2189 48.2729 86.6229 49.9996 86.6229C51.7263 86.6229 53.1246 85.2189 53.1246 83.4852V10.7131L61.1993 18.8208C61.8085 19.4338 62.6085 19.739 63.4084 19.739C64.2084 19.739 65.0084 19.4324 65.6176 18.8208C66.8387 17.5947 66.8387 15.6078 65.6176 14.3831L52.2087 0.919555C50.989 -0.306518 49.0088 -0.306518 47.7905 0.919555L34.3816 14.3831C33.1605 15.6092 33.1605 17.5961 34.3816 18.8208C35.6014 20.0455 37.5816 20.0455 38.7999 18.8208Z" fill="black"/>
</g>
<defs>
<clipPath id="clip0_52_2">
<rect width="100" height="125.51" fill="white"/>
</clipPath>
</defs>
</svg>
